<?xml version="1.0" standalone="no"?>
<!DOCTYPE svg PUBLIC "-//W3C//DTD SVG 20010904//EN"
 "http://www.w3.org/TR/2001/REC-SVG-20010904/DTD/svg10.dtd">
<svg version="1.0" xmlns="http://www.w3.org/2000/svg"
 width="1000.000000pt" height="1000.000000pt" viewBox="0 0 1000.000000 1000.000000"
 preserveAspectRatio="xMidYMid meet">
<metadata>
Created by potrace 1.11, written by Peter Selinger 2001-2013
</metadata>
<g transform="translate(0.000000,1000.000000) scale(0.100000,-0.100000)"
fill="#000000" stroke="none">
<path d="M5811 8673 c-102 -164 -199 -320 -216 -348 -18 -27 -112 -178 -210
-335 -98 -157 -192 -307 -210 -335 -17 -27 -91 -146 -164 -262 -73 -117 -136
-213 -141 -213 -5 0 -12 5 -15 10 -3 6 -27 19 -53 31 -81 35 -117 54 -121 62
-4 10 -52 31 -67 29 -5 -1 -39 9 -74 23 -35 14 -72 25 -82 25 -9 0 -37 9 -60
19 -102 45 -239 59 -548 55 -124 -1 -238 -5 -255 -9 -80 -16 -171 -39 -181
-46 -6 -5 -37 -17 -70 -28 -110 -37 -166 -59 -173 -67 -10 -14 -88 -54 -105
-54 -9 0 -21 -9 -28 -20 -7 -11 -21 -20 -31 -20 -10 0 -37 -17 -58 -37 -22
-21 -43 -37 -47 -36 -4 1 -13 -9 -20 -23 -7 -13 -17 -24 -23 -24 -13 0 -281
-266 -304 -302 -9 -16 -24 -28 -31 -28 -8 0 -14 -5 -14 -11 0 -6 -20 -35 -45
-66 -25 -30 -45 -61 -45 -68 0 -7 -6 -15 -14 -18 -7 -3 -27 -30 -44 -60 -17
-30 -37 -60 -44 -68 -11 -11 -85 -142 -118 -208 -42 -86 -73 -157 -94 -216
-13 -38 -36 -101 -49 -140 -39 -111 -60 -254 -59 -394 1 -69 7 -140 13 -159 6
-18 9 -35 7 -38 -6 -5 -132 -21 -232 -29 -43 -4 -103 -13 -133 -21 -29 -8 -67
-14 -83 -14 -16 0 -33 -6 -37 -12 -11 -18 -71 -48 -93 -48 -10 0 -22 -4 -25
-10 -3 -5 -14 -10 -24 -10 -10 0 -35 -11 -55 -25 -20 -14 -41 -25 -46 -25 -10
0 -132 -75 -195 -120 -45 -32 -255 -245 -300 -305 -54 -71 -165 -269 -171
-305 -3 -19 -14 -49 -24 -66 -30 -53 -41 -142 -42 -349 0 -187 14 -306 41
-340 11 -15 21 -37 21 -49 0 -12 4 -26 8 -31 5 -6 15 -26 22 -45 7 -19 23 -48
34 -65 12 -16 29 -45 39 -64 55 -101 223 -264 344 -333 21 -12 48 -30 59 -40
12 -11 32 -20 45 -20 13 -1 31 -7 39 -14 20 -17 87 -41 134 -49 22 -4 49 -13
60 -21 16 -11 64 -14 223 -14 189 0 202 -1 208 -19 3 -10 29 -40 58 -65 29
-26 66 -60 83 -75 17 -16 41 -32 53 -36 11 -3 21 -10 21 -14 0 -4 -48 -83
-106 -177 -59 -93 -135 -215 -170 -272 l-63 -102 367 0 367 0 100 160 100 161
44 -3 c49 -2 126 -20 137 -31 4 -4 12 -2 19 3 7 6 34 6 71 1 32 -5 111 -12
174 -16 63 -3 138 -12 165 -20 69 -19 489 -16 523 3 13 8 70 17 126 21 56 4
107 10 113 14 7 4 15 3 18 -3 4 -7 11 -7 18 -2 14 11 85 26 109 23 10 -1 34 5
55 14 21 10 47 21 58 26 11 5 40 13 65 19 107 25 177 47 200 62 67 45 180 41
222 -7 12 -14 29 -25 39 -25 16 0 81 -29 159 -71 19 -10 64 -28 100 -39 35
-11 67 -25 71 -31 5 -9 65 -27 169 -50 25 -5 53 -14 62 -19 10 -6 25 -10 35
-10 9 0 30 -4 47 -9 62 -19 133 -31 211 -37 44 -3 98 -9 120 -13 56 -10 546
-11 625 0 36 4 110 11 165 15 55 3 109 11 120 17 11 6 41 9 66 8 26 -1 50 2
54 8 3 6 28 11 55 11 27 0 59 4 72 9 13 5 41 11 63 14 22 4 72 13 110 22 39 8
87 15 107 15 20 0 44 7 53 16 9 9 45 20 85 25 39 5 82 15 97 22 16 8 41 13 56
11 18 -2 30 3 34 12 3 8 12 14 20 14 18 0 108 27 151 46 18 8 44 14 59 14 14
0 44 9 67 19 89 42 133 60 173 70 22 6 46 18 53 26 7 8 18 15 24 15 6 0 28 9
49 20 20 11 48 20 61 20 14 0 32 7 40 16 18 17 163 94 178 94 6 0 22 9 36 21
15 11 63 42 107 69 89 55 191 125 268 186 29 22 60 43 70 47 9 3 17 16 17 27
0 11 5 20 10 20 13 0 270 258 270 270 0 5 9 17 19 27 10 10 33 45 51 78 18 33
38 67 44 75 7 8 23 44 36 80 13 36 27 70 33 77 35 46 53 329 28 431 -17 64
-70 203 -101 263 -16 32 -30 65 -30 74 0 8 -4 15 -9 15 -5 0 -33 33 -63 73
-50 66 -145 166 -229 242 -35 32 -184 109 -229 119 -49 11 -55 21 -32 53 11
16 30 58 42 93 11 36 29 76 39 90 10 14 23 41 28 60 43 142 57 186 64 195 9
13 47 215 55 290 3 33 9 79 14 103 9 50 8 652 -2 667 -4 6 -10 56 -13 110 -4
55 -9 104 -12 108 -3 5 -11 48 -19 95 -23 150 -87 397 -108 422 -8 8 -17 26
-20 40 -4 14 -11 34 -15 45 -5 11 -14 38 -21 60 -7 22 -24 60 -39 85 -15 25
-33 61 -41 80 -12 30 -58 104 -121 196 -35 53 -101 135 -126 159 -16 14 -39
36 -53 49 -37 36 -152 126 -160 126 -4 0 -27 16 -51 35 -24 19 -48 35 -53 35
-14 0 -119 51 -137 66 -9 8 -42 21 -75 29 -32 9 -68 19 -79 24 -77 34 -96 41
-137 50 -95 22 -160 25 -424 24 -210 -1 -284 -5 -331 -17 -34 -9 -75 -16 -91
-16 -17 0 -37 -7 -46 -15 -8 -8 -22 -15 -31 -15 -9 0 -37 -6 -63 -14 -26 -8
-74 -22 -107 -32 -33 -10 -68 -26 -78 -36 -10 -10 -25 -18 -33 -18 -13 0 -88
-36 -124 -60 -8 -6 -32 -17 -52 -25 -21 -9 -38 -20 -38 -25 0 -6 -6 -10 -13
-10 -8 0 -24 -9 -37 -20 -27 -24 -34 -25 -27 -6 6 14 231 386 292 481 17 28
58 93 90 145 33 52 83 132 112 177 29 45 53 86 53 91 0 5 -158 10 -362 11
l-363 2 -184 -298z"/>
</g>
</svg>
